<mxfile host="app.diagrams.net" modified="2021-08-24T15:05:04.220Z" agent="5.0 (Macintosh; Intel Mac OS X 10_15_7) AppleWebKit/605.1.15 (KHTML, like Gecko) Version/14.1.2 Safari/605.1.15" etag="cgS96UVbO7CYfCM6A-3l" version="14.9.8" type="github">
  <diagram id="NdxMexaaoQhGaBtuRiI1" name="Page-1">
    <mxGraphModel dx="1406" dy="701" grid="1" gridSize="10" guides="1" tooltips="1" connect="1" arrows="1" fold="1" page="1" pageScale="1" pageWidth="1169" pageHeight="827" math="0" shadow="0">
      <root>
        <mxCell id="0" />
        <mxCell id="1" parent="0" />
        <mxCell id="RRquFC_fXJBaHaWJvJQ2-26" style="edgeStyle=orthogonalEdgeStyle;rounded=0;orthogonalLoop=1;jettySize=auto;html=1;entryX=0.426;entryY=1.038;entryDx=0;entryDy=0;entryPerimeter=0;endArrow=classic;endFill=0;" edge="1" parent="1" source="RRquFC_fXJBaHaWJvJQ2-1" target="RRquFC_fXJBaHaWJvJQ2-24">
          <mxGeometry relative="1" as="geometry" />
        </mxCell>
        <mxCell id="RRquFC_fXJBaHaWJvJQ2-1" value="Professores" style="swimlane;fontStyle=1;align=center;verticalAlign=top;childLayout=stackLayout;horizontal=1;startSize=26;horizontalStack=0;resizeParent=1;resizeParentMax=0;resizeLast=0;collapsible=1;marginBottom=0;" vertex="1" parent="1">
          <mxGeometry x="640" y="360" width="190" height="138" as="geometry" />
        </mxCell>
        <mxCell id="RRquFC_fXJBaHaWJvJQ2-17" value="- titulo: String" style="text;strokeColor=none;fillColor=none;align=left;verticalAlign=top;spacingLeft=4;spacingRight=4;overflow=hidden;rotatable=0;points=[[0,0.5],[1,0.5]];portConstraint=eastwest;" vertex="1" parent="RRquFC_fXJBaHaWJvJQ2-1">
          <mxGeometry y="26" width="190" height="26" as="geometry" />
        </mxCell>
        <mxCell id="RRquFC_fXJBaHaWJvJQ2-18" value="- inicioContrato: DateÂ " style="text;strokeColor=none;fillColor=none;align=left;verticalAlign=top;spacingLeft=4;spacingRight=4;overflow=hidden;rotatable=0;points=[[0,0.5],[1,0.5]];portConstraint=eastwest;" vertex="1" parent="RRquFC_fXJBaHaWJvJQ2-1">
          <mxGeometry y="52" width="190" height="26" as="geometry" />
        </mxCell>
        <mxCell id="RRquFC_fXJBaHaWJvJQ2-3" value="" style="line;strokeWidth=1;fillColor=none;align=left;verticalAlign=middle;spacingTop=-1;spacingLeft=3;spacingRight=3;rotatable=0;labelPosition=right;points=[];portConstraint=eastwest;" vertex="1" parent="RRquFC_fXJBaHaWJvJQ2-1">
          <mxGeometry y="78" width="190" height="8" as="geometry" />
        </mxCell>
        <mxCell id="RRquFC_fXJBaHaWJvJQ2-4" value="+ realizarAtividade(): void" style="text;strokeColor=none;fillColor=none;align=left;verticalAlign=top;spacingLeft=4;spacingRight=4;overflow=hidden;rotatable=0;points=[[0,0.5],[1,0.5]];portConstraint=eastwest;" vertex="1" parent="RRquFC_fXJBaHaWJvJQ2-1">
          <mxGeometry y="86" width="190" height="26" as="geometry" />
        </mxCell>
        <mxCell id="RRquFC_fXJBaHaWJvJQ2-21" value="+ calcTempoContrato(): int" style="text;strokeColor=none;fillColor=none;align=left;verticalAlign=top;spacingLeft=4;spacingRight=4;overflow=hidden;rotatable=0;points=[[0,0.5],[1,0.5]];portConstraint=eastwest;" vertex="1" parent="RRquFC_fXJBaHaWJvJQ2-1">
          <mxGeometry y="112" width="190" height="26" as="geometry" />
        </mxCell>
        <mxCell id="RRquFC_fXJBaHaWJvJQ2-27" style="edgeStyle=orthogonalEdgeStyle;rounded=0;orthogonalLoop=1;jettySize=auto;html=1;entryX=0.689;entryY=0.962;entryDx=0;entryDy=0;entryPerimeter=0;endArrow=classic;endFill=0;" edge="1" parent="1" source="RRquFC_fXJBaHaWJvJQ2-5" target="RRquFC_fXJBaHaWJvJQ2-24">
          <mxGeometry relative="1" as="geometry" />
        </mxCell>
        <mxCell id="RRquFC_fXJBaHaWJvJQ2-5" value="Administrativo" style="swimlane;fontStyle=1;align=center;verticalAlign=top;childLayout=stackLayout;horizontal=1;startSize=26;horizontalStack=0;resizeParent=1;resizeParentMax=0;resizeLast=0;collapsible=1;marginBottom=0;" vertex="1" parent="1">
          <mxGeometry x="960" y="360" width="160" height="86" as="geometry" />
        </mxCell>
        <mxCell id="RRquFC_fXJBaHaWJvJQ2-20" value="- cargo: String" style="text;strokeColor=none;fillColor=none;align=left;verticalAlign=top;spacingLeft=4;spacingRight=4;overflow=hidden;rotatable=0;points=[[0,0.5],[1,0.5]];portConstraint=eastwest;" vertex="1" parent="RRquFC_fXJBaHaWJvJQ2-5">
          <mxGeometry y="26" width="160" height="26" as="geometry" />
        </mxCell>
        <mxCell id="RRquFC_fXJBaHaWJvJQ2-7" value="" style="line;strokeWidth=1;fillColor=none;align=left;verticalAlign=middle;spacingTop=-1;spacingLeft=3;spacingRight=3;rotatable=0;labelPosition=right;points=[];portConstraint=eastwest;" vertex="1" parent="RRquFC_fXJBaHaWJvJQ2-5">
          <mxGeometry y="52" width="160" height="8" as="geometry" />
        </mxCell>
        <mxCell id="RRquFC_fXJBaHaWJvJQ2-8" value="+ realizarAtividade(): void" style="text;strokeColor=none;fillColor=none;align=left;verticalAlign=top;spacingLeft=4;spacingRight=4;overflow=hidden;rotatable=0;points=[[0,0.5],[1,0.5]];portConstraint=eastwest;" vertex="1" parent="RRquFC_fXJBaHaWJvJQ2-5">
          <mxGeometry y="60" width="160" height="26" as="geometry" />
        </mxCell>
        <mxCell id="RRquFC_fXJBaHaWJvJQ2-25" style="edgeStyle=orthogonalEdgeStyle;rounded=0;orthogonalLoop=1;jettySize=auto;html=1;entryX=0.216;entryY=1.038;entryDx=0;entryDy=0;entryPerimeter=0;endArrow=classic;endFill=0;" edge="1" parent="1" source="RRquFC_fXJBaHaWJvJQ2-9" target="RRquFC_fXJBaHaWJvJQ2-24">
          <mxGeometry relative="1" as="geometry" />
        </mxCell>
        <mxCell id="RRquFC_fXJBaHaWJvJQ2-9" value="Alunos" style="swimlane;fontStyle=1;align=center;verticalAlign=top;childLayout=stackLayout;horizontal=1;startSize=26;horizontalStack=0;resizeParent=1;resizeParentMax=0;resizeLast=0;collapsible=1;marginBottom=0;" vertex="1" parent="1">
          <mxGeometry x="330" y="360" width="160" height="60" as="geometry" />
        </mxCell>
        <mxCell id="RRquFC_fXJBaHaWJvJQ2-11" value="" style="line;strokeWidth=1;fillColor=none;align=left;verticalAlign=middle;spacingTop=-1;spacingLeft=3;spacingRight=3;rotatable=0;labelPosition=right;points=[];portConstraint=eastwest;" vertex="1" parent="RRquFC_fXJBaHaWJvJQ2-9">
          <mxGeometry y="26" width="160" height="8" as="geometry" />
        </mxCell>
        <mxCell id="RRquFC_fXJBaHaWJvJQ2-12" value="+ realizarAtividade(): void" style="text;strokeColor=none;fillColor=none;align=left;verticalAlign=top;spacingLeft=4;spacingRight=4;overflow=hidden;rotatable=0;points=[[0,0.5],[1,0.5]];portConstraint=eastwest;" vertex="1" parent="RRquFC_fXJBaHaWJvJQ2-9">
          <mxGeometry y="34" width="160" height="26" as="geometry" />
        </mxCell>
        <mxCell id="RRquFC_fXJBaHaWJvJQ2-13" value="Pessoas" style="swimlane;fontStyle=1;align=center;verticalAlign=top;childLayout=stackLayout;horizontal=1;startSize=26;horizontalStack=0;resizeParent=1;resizeParentMax=0;resizeLast=0;collapsible=1;marginBottom=0;" vertex="1" parent="1">
          <mxGeometry x="640" y="90" width="190" height="164" as="geometry" />
        </mxCell>
        <mxCell id="RRquFC_fXJBaHaWJvJQ2-14" value="# numRegistro: String" style="text;strokeColor=none;fillColor=none;align=left;verticalAlign=top;spacingLeft=4;spacingRight=4;overflow=hidden;rotatable=0;points=[[0,0.5],[1,0.5]];portConstraint=eastwest;" vertex="1" parent="RRquFC_fXJBaHaWJvJQ2-13">
          <mxGeometry y="26" width="190" height="26" as="geometry" />
        </mxCell>
        <mxCell id="RRquFC_fXJBaHaWJvJQ2-22" value="- registroEntrada: Date Time" style="text;strokeColor=none;fillColor=none;align=left;verticalAlign=top;spacingLeft=4;spacingRight=4;overflow=hidden;rotatable=0;points=[[0,0.5],[1,0.5]];portConstraint=eastwest;" vertex="1" parent="RRquFC_fXJBaHaWJvJQ2-13">
          <mxGeometry y="52" width="190" height="26" as="geometry" />
        </mxCell>
        <mxCell id="RRquFC_fXJBaHaWJvJQ2-23" value="- registroSaida: Date Time" style="text;strokeColor=none;fillColor=none;align=left;verticalAlign=top;spacingLeft=4;spacingRight=4;overflow=hidden;rotatable=0;points=[[0,0.5],[1,0.5]];portConstraint=eastwest;" vertex="1" parent="RRquFC_fXJBaHaWJvJQ2-13">
          <mxGeometry y="78" width="190" height="26" as="geometry" />
        </mxCell>
        <mxCell id="RRquFC_fXJBaHaWJvJQ2-15" value="" style="line;strokeWidth=1;fillColor=none;align=left;verticalAlign=middle;spacingTop=-1;spacingLeft=3;spacingRight=3;rotatable=0;labelPosition=right;points=[];portConstraint=eastwest;" vertex="1" parent="RRquFC_fXJBaHaWJvJQ2-13">
          <mxGeometry y="104" width="190" height="8" as="geometry" />
        </mxCell>
        <mxCell id="RRquFC_fXJBaHaWJvJQ2-16" value="+ realizarAtividade(): void" style="text;strokeColor=none;fillColor=none;align=left;verticalAlign=top;spacingLeft=4;spacingRight=4;overflow=hidden;rotatable=0;points=[[0,0.5],[1,0.5]];portConstraint=eastwest;" vertex="1" parent="RRquFC_fXJBaHaWJvJQ2-13">
          <mxGeometry y="112" width="190" height="26" as="geometry" />
        </mxCell>
        <mxCell id="RRquFC_fXJBaHaWJvJQ2-24" value="+ registrarPonto(): void" style="text;strokeColor=none;fillColor=none;align=left;verticalAlign=top;spacingLeft=4;spacingRight=4;overflow=hidden;rotatable=0;points=[[0,0.5],[1,0.5]];portConstraint=eastwest;" vertex="1" parent="RRquFC_fXJBaHaWJvJQ2-13">
          <mxGeometry y="138" width="190" height="26" as="geometry" />
        </mxCell>
      </root>
    </mxGraphModel>
  </diagram>
</mxfile>
